<svg width="1031" height="1515" xmlns="http://www.w3.org/2000/svg" xmlns:xlink="http://www.w3.org/1999/xlink" xml:space="preserve" overflow="hidden"><defs><clipPath id="clip0"><rect x="999" y="45" width="1031" height="1515"/></clipPath></defs><g clip-path="url(#clip0)" transform="translate(-999 -45)"><path d="M1514.5 271.12C1380.89 271.12 1272.58 379.443 1272.58 513.067 1272.58 646.691 1380.89 755.015 1514.5 755.015 1648.11 755.015 1756.42 646.691 1756.42 513.067 1756.42 379.443 1648.11 271.12 1514.5 271.12ZM1514.5 45C1799.2 45 2030 275.821 2030 560.552 2030 845.284 1690.68 1243.43 1514.5 1560 1302.15 1207.25 999 813.052 999 560.552 999 308.052 1229.8 45 1514.5 45Z" fill="#DBBD5F" fill-rule="evenodd"/></g></svg>